<svg width="24" height="24" viewBox="0 0 24 24" fill="none" xmlns="http://www.w3.org/2000/svg">
<path fill-rule="evenodd" clip-rule="evenodd" d="M5.79181 2.44116C6.10046 2.7174 6.12672 3.19155 5.85048 3.50019C4.83314 4.63686 4.12716 6.05581 3.86405 7.6241C3.79551 8.0326 3.4088 8.3082 3.00029 8.23967C2.59179 8.17114 2.31619 7.78442 2.38472 7.37592C2.69617 5.51948 3.53182 3.84163 4.73278 2.49982C5.00902 2.19118 5.48317 2.16491 5.79181 2.44116ZM18.2081 2.44116C18.5167 2.16491 18.9909 2.19118 19.2671 2.49982C20.4681 3.84163 21.3037 5.51948 21.6152 7.37592C21.6837 7.78442 21.4081 8.17114 20.9996 8.23967C20.5911 8.3082 20.2044 8.0326 20.1358 7.6241C19.8727 6.05581 19.1668 4.63686 18.1494 3.50019C17.8732 3.19155 17.8994 2.7174 18.2081 2.44116ZM11.9999 3.75001C9.10045 3.75001 6.74995 6.10051 6.74995 9.00001L6.74975 9.75001C6.74975 9.75007 6.74975 9.74994 6.74975 9.75001C6.74971 11.8594 6.0791 13.8136 4.94019 15.4091C6.31907 15.848 7.75389 16.1617 9.23141 16.337C10.1389 16.4446 11.0627 16.5 11.9998 16.5C12.9369 16.5 13.8608 16.4446 14.7685 16.3369C16.2459 16.1617 17.6805 15.848 19.0593 15.4091C17.9204 13.8136 17.2498 11.8595 17.2498 9.75001V9.04317L17.2499 9.00001C17.2499 6.10051 14.8994 3.75001 11.9999 3.75001ZM5.24995 9.00001C5.24995 5.27209 8.27203 2.25001 11.9999 2.25001C15.7279 2.25001 18.7499 5.27209 18.7499 9.00001L18.7498 9.04919V9.75001C18.7498 11.8731 19.5508 13.8074 20.8683 15.2699C21.0348 15.4547 21.0988 15.71 21.0392 15.9516C20.9796 16.1931 20.8042 16.3893 20.5708 16.4755C19.0268 17.0455 17.4105 17.4659 15.7396 17.7192C15.7464 17.812 15.7499 17.9056 15.7499 18C15.7499 20.0711 14.071 21.75 11.9999 21.75C9.92888 21.75 8.24995 20.0711 8.24995 18C8.24995 17.9056 8.25345 17.812 8.26033 17.7193C6.58927 17.4659 4.97281 17.0455 3.42869 16.4755C3.19532 16.3893 3.01986 16.1931 2.96027 15.9516C2.90067 15.71 2.9647 15.4547 3.1312 15.2699C4.44873 13.8074 5.24975 11.8731 5.24975 9.75001L5.24995 9.00001ZM9.75215 17.8993C9.75069 17.9326 9.74995 17.9662 9.74995 18C9.74995 19.2426 10.7573 20.25 11.9999 20.25C13.2426 20.25 14.2499 19.2426 14.2499 18C14.2499 17.9662 14.2492 17.9326 14.2477 17.8992C13.5072 17.9659 12.7573 18 11.9998 18C11.2423 18 10.4926 17.966 9.75215 17.8993Z" fill="black"/>
</svg>
