<svg width="24" height="24" viewBox="0 0 24 24" fill="none" xmlns="http://www.w3.org/2000/svg">
<path fill-rule="evenodd" clip-rule="evenodd" d="M2.46967 2.46967C2.76256 2.17678 3.23744 2.17678 3.53033 2.46967L6.35645 5.29579C7.56245 3.46204 9.63909 2.25 12 2.25C15.7279 2.25 18.75 5.27208 18.75 9L18.75 9.00301L18.7498 9.04919V9.75C18.7498 11.8731 19.5508 13.8074 20.8684 15.2699C21.0349 15.4547 21.0989 15.71 21.0393 15.9516C20.9797 16.1931 20.8042 16.3893 20.5709 16.4755C19.8176 16.7535 19.0472 16.996 18.2615 17.2009L21.5303 20.4697C21.8232 20.7626 21.8232 21.2374 21.5303 21.5303C21.2374 21.8232 20.7626 21.8232 20.4697 21.5303L2.46967 3.53033C2.17678 3.23744 2.17678 2.76256 2.46967 2.46967ZM17.0179 15.9572C17.7105 15.8049 18.3915 15.6217 19.0594 15.4091C17.9204 13.8136 17.2498 11.8595 17.2498 9.75V9.04919L17.2498 9.04618L17.25 9C17.25 8.99949 17.25 8.99898 17.25 8.99847C17.2492 6.09968 14.899 3.75 12 3.75C10.0535 3.75 8.35305 4.80938 7.44613 6.38547L17.0179 15.9572ZM6.02658 9.4809C6.44022 9.50263 6.75793 9.85557 6.7362 10.2692C6.6358 12.1801 5.98499 13.9456 4.94025 15.4091C6.31913 15.848 7.75394 16.1617 9.23147 16.337C10.139 16.4446 11.0628 16.5 11.9998 16.5C12.3205 16.5 12.6396 16.4935 12.9571 16.4807C13.371 16.4639 13.72 16.7858 13.7368 17.1997C13.7535 17.6136 13.4316 17.9627 13.0177 17.9794C12.6801 17.9931 12.3407 18 11.9998 18C11.2423 18 10.4927 17.966 9.7522 17.8993C9.75074 17.9326 9.75 17.9662 9.75 18C9.75 19.2426 10.7574 20.25 12 20.25C12.9636 20.25 13.7876 19.6439 14.1078 18.7895C14.2532 18.4017 14.6854 18.2051 15.0733 18.3504C15.4612 18.4958 15.6578 18.9281 15.5124 19.316C14.9799 20.7367 13.6092 21.75 12 21.75C9.92893 21.75 8.25 20.0711 8.25 18C8.25 17.9056 8.2535 17.812 8.26039 17.7192C6.58932 17.4659 4.97286 17.0455 3.42874 16.4755C3.19538 16.3893 3.01991 16.1931 2.96032 15.9516C2.90072 15.71 2.96475 15.4547 3.13125 15.2699C4.35734 13.9089 5.13587 12.1395 5.23826 10.1905C5.25999 9.77688 5.61293 9.45917 6.02658 9.4809Z" fill="black"/>
</svg>
