<svg width="24" height="24" viewBox="0 0 24 24" fill="none" xmlns="http://www.w3.org/2000/svg">
<path fill-rule="evenodd" clip-rule="evenodd" d="M12 3.75C10.137 3.75 8.29938 3.85779 6.49314 4.06741C5.78933 4.14909 5.25 4.76078 5.25 5.50699V19.7865L11.6646 16.5792C11.8757 16.4736 12.1243 16.4736 12.3354 16.5792L18.75 19.7865V5.50699C18.75 4.76078 18.2107 4.14909 17.5069 4.06741C15.7006 3.85779 13.863 3.75 12 3.75ZM6.32022 2.57741C8.18374 2.36114 10.079 2.25 12 2.25C13.921 2.25 15.8163 2.36114 17.6798 2.57741C19.1772 2.75119 20.25 4.03722 20.25 5.50699V21C20.25 21.2599 20.1154 21.5013 19.8943 21.638C19.6732 21.7746 19.3971 21.7871 19.1646 21.6708L12 18.0885L4.83541 21.6708C4.60292 21.7871 4.32681 21.7746 4.1057 21.638C3.88459 21.5013 3.75 21.2599 3.75 21V5.50699C3.75 4.03722 4.82283 2.75119 6.32022 2.57741Z" fill="black"/>
</svg>
