<svg width="24" height="24" viewBox="0 0 24 24" fill="none" xmlns="http://www.w3.org/2000/svg">
<path fill-rule="evenodd" clip-rule="evenodd" d="M2.46967 2.46967C2.76256 2.17678 3.23744 2.17678 3.53033 2.46967L4.54143 3.48077C4.99219 2.99494 5.6091 2.65994 6.32022 2.57741C8.18374 2.36114 10.079 2.25 12 2.25C13.921 2.25 15.8163 2.36114 17.6798 2.57741C19.1772 2.75119 20.25 4.03722 20.25 5.50699V19.1893L21.5303 20.4697C21.8232 20.7626 21.8232 21.2374 21.5303 21.5303C21.2374 21.8232 20.7626 21.8232 20.4697 21.5303L2.46967 3.53033C2.17678 3.23744 2.17678 2.76256 2.46967 2.46967ZM18.75 17.6893V5.50699C18.75 4.76078 18.2107 4.14909 17.5069 4.06741C15.7006 3.85779 13.8631 3.75 12 3.75C10.137 3.75 8.29938 3.85779 6.49314 4.06741C6.13775 4.10865 5.82609 4.28321 5.60336 4.5427L18.75 17.6893ZM4.5 7.99237C4.91421 7.99237 5.25 8.32816 5.25 8.74237V19.7865L11.6646 16.5792C11.8757 16.4736 12.1243 16.4736 12.3354 16.5792L14.3507 17.5868C14.7212 17.772 14.8713 18.2226 14.6861 18.593C14.5008 18.9635 14.0503 19.1137 13.6798 18.9284L12 18.0885L4.83541 21.6708C4.60292 21.7871 4.32681 21.7746 4.1057 21.638C3.88459 21.5013 3.75 21.2599 3.75 21V8.74237C3.75 8.32816 4.08579 7.99237 4.5 7.99237Z" fill="black"/>
</svg>
