<svg width="24" height="24" viewBox="0 0 24 24" fill="none" xmlns="http://www.w3.org/2000/svg">
<path fill-rule="evenodd" clip-rule="evenodd" d="M12 3.75C7.44365 3.75 3.75 7.44365 3.75 12C3.75 16.5563 7.44365 20.25 12 20.25C16.5563 20.25 20.25 16.5563 20.25 12C20.25 7.44365 16.5563 3.75 12 3.75ZM2.25 12C2.25 6.61522 6.61522 2.25 12 2.25C17.3848 2.25 21.75 6.61522 21.75 12C21.75 17.3848 17.3848 21.75 12 21.75C6.61522 21.75 2.25 17.3848 2.25 12ZM7.125 12C7.125 11.3787 7.62868 10.875 8.25 10.875C8.87132 10.875 9.375 11.3787 9.375 12C9.375 12.6213 8.87132 13.125 8.25 13.125C7.62868 13.125 7.125 12.6213 7.125 12ZM10.875 12C10.875 11.3787 11.3787 10.875 12 10.875C12.6213 10.875 13.125 11.3787 13.125 12C13.125 12.6213 12.6213 13.125 12 13.125C11.3787 13.125 10.875 12.6213 10.875 12ZM14.625 12C14.625 11.3787 15.1287 10.875 15.75 10.875C16.3713 10.875 16.875 11.3787 16.875 12C16.875 12.6213 16.3713 13.125 15.75 13.125C15.1287 13.125 14.625 12.6213 14.625 12Z" fill="black"/>
</svg>
