<svg width="24" height="24" viewBox="0 0 24 24" fill="none" xmlns="http://www.w3.org/2000/svg">
<path fill-rule="evenodd" clip-rule="evenodd" d="M7.6875 4.5C5.48373 4.5 3.75 6.20749 3.75 8.25C3.75 11.5455 5.81219 14.359 8.0114 16.4091C9.09878 17.4228 10.1893 18.2209 11.009 18.7658C11.4181 19.0378 11.7579 19.2454 11.9936 19.3841C11.9957 19.3854 11.9979 19.3866 12 19.3879C12.0021 19.3866 12.0043 19.3854 12.0064 19.3841C12.2421 19.2454 12.5819 19.0378 12.991 18.7658C13.8107 18.2209 14.9012 17.4228 15.9886 16.4091C18.1878 14.359 20.25 11.5455 20.25 8.25C20.25 6.20749 18.5163 4.5 16.3125 4.5C14.6702 4.5 13.2789 5.45452 12.6852 6.78838C12.5647 7.05903 12.2963 7.23342 12 7.23342C11.7037 7.23342 11.4353 7.05903 11.3148 6.78838C10.7211 5.45452 9.32976 4.5 7.6875 4.5ZM12 20.25C11.6482 20.9124 11.648 20.9123 11.6477 20.9121L11.645 20.9107L11.6384 20.9072L11.6158 20.8949C11.5965 20.8844 11.5689 20.8693 11.5336 20.8496C11.4629 20.8101 11.3612 20.7524 11.233 20.6769C10.9765 20.5261 10.6132 20.3039 10.1785 20.015C9.31074 19.4381 8.15122 18.5901 6.9886 17.5063C4.68781 15.3615 2.25 12.1751 2.25 8.25C2.25 5.32194 4.7136 3 7.6875 3C9.43638 3 11.0023 3.79909 12 5.0516C12.9977 3.79909 14.5636 3 16.3125 3C19.2864 3 21.75 5.32194 21.75 8.25C21.75 12.1751 19.3122 15.3615 17.0114 17.5063C15.8488 18.5901 14.6893 19.4381 13.8215 20.015C13.3868 20.3039 13.0235 20.5261 12.767 20.6769C12.6388 20.7524 12.5371 20.8101 12.4664 20.8496C12.4311 20.8693 12.4035 20.8844 12.3842 20.8949L12.3616 20.9072L12.355 20.9107L12.353 20.9117C12.3527 20.9119 12.3518 20.9124 12 20.25ZM12 20.25L12.3518 20.9124C12.1318 21.0292 11.8677 21.0289 11.6477 20.9121L12 20.25Z" fill="black"/>
</svg>
