<svg width="24" height="24" viewBox="0 0 24 24" fill="none" xmlns="http://www.w3.org/2000/svg">
<path fill-rule="evenodd" clip-rule="evenodd" d="M12.2652 3.57578C12.1187 3.42933 11.8813 3.42933 11.7348 3.57578L5.25 10.0606V19.875C5.25 20.0821 5.41789 20.25 5.625 20.25H9V16.125C9 15.0894 9.83947 14.25 10.875 14.25H13.125C14.1605 14.25 15 15.0894 15 16.125V20.25H18.375C18.5821 20.25 18.75 20.0821 18.75 19.875V10.0606L12.2652 3.57578ZM20.25 11.5606L21.2197 12.5303C21.5126 12.8232 21.9874 12.8232 22.2803 12.5303C22.5732 12.2374 22.5732 11.7625 22.2803 11.4696L13.3258 2.51512C12.5936 1.78288 11.4064 1.78288 10.6742 2.51512L1.71967 11.4696C1.42678 11.7625 1.42678 12.2374 1.71967 12.5303C2.01256 12.8232 2.48744 12.8232 2.78033 12.5303L3.75 11.5606V19.875C3.75 20.9105 4.58947 21.75 5.625 21.75H18.375C19.4105 21.75 20.25 20.9105 20.25 19.875V11.5606ZM13.5 20.25H10.5V16.125C10.5 15.9178 10.6679 15.75 10.875 15.75H13.125C13.3321 15.75 13.5 15.9178 13.5 16.125V20.25Z" fill="black"/>
</svg>
