<svg width="24" height="24" viewBox="0 0 24 24" fill="none" xmlns="http://www.w3.org/2000/svg">
<path fill-rule="evenodd" clip-rule="evenodd" d="M1.5 6.75C1.5 5.09315 2.84315 3.75 4.5 3.75H19.5C21.1569 3.75 22.5 5.09315 22.5 6.75V17.25C22.5 18.9069 21.1569 20.25 19.5 20.25H4.5C2.84315 20.25 1.5 18.9069 1.5 17.25V6.75ZM4.5 5.25C3.67157 5.25 3 5.92157 3 6.75V17.25C3 18.0784 3.67157 18.75 4.5 18.75H19.5C20.3284 18.75 21 18.0784 21 17.25V6.75C21 5.92157 20.3284 5.25 19.5 5.25H4.5ZM8.625 8.25C8.00368 8.25 7.5 8.75368 7.5 9.375C7.5 9.99632 8.00368 10.5 8.625 10.5C9.24632 10.5 9.75 9.99632 9.75 9.375C9.75 8.75368 9.24632 8.25 8.625 8.25ZM6 9.375C6 7.92525 7.17525 6.75 8.625 6.75C10.0747 6.75 11.25 7.92525 11.25 9.375C11.25 10.8247 10.0747 12 8.625 12C7.17525 12 6 10.8247 6 9.375ZM14.25 9C14.25 8.58579 14.5858 8.25 15 8.25H18.75C19.1642 8.25 19.5 8.58579 19.5 9C19.5 9.41421 19.1642 9.75 18.75 9.75H15C14.5858 9.75 14.25 9.41421 14.25 9ZM14.25 12C14.25 11.5858 14.5858 11.25 15 11.25H18.75C19.1642 11.25 19.5 11.5858 19.5 12C19.5 12.4142 19.1642 12.75 18.75 12.75H15C14.5858 12.75 14.25 12.4142 14.25 12ZM6.48305 15.3567C7.14763 15.6107 7.86936 15.75 8.62484 15.75C9.38032 15.75 10.102 15.6107 10.7666 15.3567C10.2906 14.6865 9.5081 14.25 8.62484 14.25C7.74158 14.25 6.9591 14.6865 6.48305 15.3567ZM4.7518 15.4528C5.33078 13.8765 6.84531 12.75 8.62484 12.75C10.4044 12.75 11.9189 13.8765 12.4979 15.4528C12.627 15.8043 12.477 16.1972 12.1465 16.3733C11.0957 16.9331 9.89616 17.25 8.62484 17.25C7.35353 17.25 6.15402 16.9331 5.10319 16.3733C4.77266 16.1972 4.62268 15.8043 4.7518 15.4528ZM14.25 15C14.25 14.5858 14.5858 14.25 15 14.25H18.75C19.1642 14.25 19.5 14.5858 19.5 15C19.5 15.4142 19.1642 15.75 18.75 15.75H15C14.5858 15.75 14.25 15.4142 14.25 15Z" fill="black"/>
</svg>
