<svg width="24" height="24" viewBox="0 0 24 24" fill="none" xmlns="http://www.w3.org/2000/svg">
<path fill-rule="evenodd" clip-rule="evenodd" d="M4.04446 5.11774C4.43177 3.85897 5.59478 3 6.91179 3H17.0882C18.4052 3 19.5682 3.85897 19.9555 5.11774L22.3673 12.9561C22.3894 13.0279 22.4088 13.1004 22.4254 13.1736C22.4732 13.2722 22.5 13.383 22.5 13.5C22.5 13.5384 22.4971 13.5762 22.4915 13.6131C22.4972 13.6879 22.5 13.7631 22.5 13.8383V18C22.5 19.6569 21.1569 21 19.5 21H4.5C2.84315 21 1.5 19.6569 1.5 18V13.8383C1.5 13.7631 1.50283 13.6879 1.50847 13.6131C1.50289 13.5762 1.5 13.5384 1.5 13.5C1.5 13.383 1.52679 13.2722 1.57458 13.1736C1.5912 13.1004 1.61056 13.0279 1.63266 12.9561L4.04446 5.11774ZM3 14.25V18C3 18.8284 3.67157 19.5 4.5 19.5H19.5C20.3284 19.5 21 18.8284 21 18V14.25H17.8906C17.3224 14.25 16.803 14.571 16.5489 15.0792L16.2927 15.5916C15.7845 16.608 14.7457 17.25 13.6094 17.25H10.3906C9.25426 17.25 8.21547 16.608 7.70729 15.5916L7.45106 15.0792C7.19698 14.571 6.67758 14.25 6.10942 14.25H3ZM20.7345 12.75H17.8906C16.7543 12.75 15.7155 13.392 15.2073 14.4084L14.9511 14.9208C14.697 15.429 14.1776 15.75 13.6094 15.75H10.3906C9.82242 15.75 9.30302 15.429 9.04894 14.9208L8.79271 14.4084C8.28453 13.392 7.24574 12.75 6.10942 12.75H3.26547L5.47812 5.55887C5.67178 4.92948 6.25329 4.5 6.91179 4.5H17.0882C17.7467 4.5 18.3282 4.92948 18.5219 5.55887L20.7345 12.75Z" fill="black"/>
</svg>
