<svg width="24" height="24" viewBox="0 0 24 24" fill="none" xmlns="http://www.w3.org/2000/svg">
<path fill-rule="evenodd" clip-rule="evenodd" d="M12 3.75C7.44365 3.75 3.75 7.44365 3.75 12C3.75 16.5563 7.44365 20.25 12 20.25C16.5563 20.25 20.25 16.5563 20.25 12C20.25 7.44365 16.5563 3.75 12 3.75ZM2.25 12C2.25 6.61522 6.61522 2.25 12 2.25C17.3848 2.25 21.75 6.61522 21.75 12C21.75 17.3848 17.3848 21.75 12 21.75C6.61522 21.75 2.25 17.3848 2.25 12ZM10.875 8.25C9.42525 8.25 8.25 9.42525 8.25 10.875C8.25 12.3247 9.42525 13.5 10.875 13.5C11.6001 13.5 12.2553 13.207 12.7312 12.7312C13.207 12.2553 13.5 11.6001 13.5 10.875C13.5 9.42525 12.3247 8.25 10.875 8.25ZM6.75 10.875C6.75 8.59683 8.59683 6.75 10.875 6.75C13.1532 6.75 15 8.59683 15 10.875C15 11.7428 14.7315 12.5487 14.2737 13.2131L16.2803 15.2197C16.5732 15.5126 16.5732 15.9874 16.2803 16.2803C15.9874 16.5732 15.5126 16.5732 15.2197 16.2803L13.2131 14.2737C12.5487 14.7315 11.7428 15 10.875 15C8.59683 15 6.75 13.1532 6.75 10.875Z" fill="black"/>
</svg>
