<svg width="24" height="24" viewBox="0 0 24 24" fill="none" xmlns="http://www.w3.org/2000/svg">
<path fill-rule="evenodd" clip-rule="evenodd" d="M9.16771 3.9224C9.06213 3.86962 8.93787 3.86962 8.83229 3.9224L3.95729 6.3599C3.83025 6.42342 3.75 6.55327 3.75 6.69531V19.1797C3.75 19.4585 4.04337 19.6398 4.2927 19.5151L8.16147 17.5808C8.68934 17.3168 9.31066 17.3168 9.83853 17.5808L14.8323 20.0776C14.9379 20.1304 15.0621 20.1304 15.1677 20.0776L20.0427 17.6401C20.1697 17.5766 20.25 17.4468 20.25 17.3047V4.82031C20.25 4.54154 19.9566 4.36023 19.7073 4.4849L15.8385 6.41929C15.3107 6.68322 14.6893 6.68322 14.1615 6.41929L9.16771 3.9224ZM8.16147 2.58076C8.68934 2.31683 9.31066 2.31683 9.83853 2.58076L14.8323 5.07765C14.9379 5.13043 15.0621 5.13043 15.1677 5.07765L19.0365 3.14326C20.2832 2.51992 21.75 3.42647 21.75 4.82031V17.3047C21.75 18.0149 21.3487 18.6642 20.7135 18.9818L15.8385 21.4193C15.3107 21.6832 14.6893 21.6832 14.1615 21.4193L9.16771 18.9224C9.06213 18.8696 8.93787 18.8696 8.83229 18.9224L4.96352 20.8568C3.71684 21.4801 2.25 20.5736 2.25 19.1797V6.69531C2.25 5.98512 2.65125 5.33587 3.28647 5.01826L8.16147 2.58076ZM9 6.00002C9.41421 6.00002 9.75 6.33581 9.75 6.75002V15C9.75 15.4142 9.41421 15.75 9 15.75C8.58579 15.75 8.25 15.4142 8.25 15V6.75002C8.25 6.33581 8.58579 6.00002 9 6.00002ZM15 8.25002C15.4142 8.25002 15.75 8.58581 15.75 9.00002V17.25C15.75 17.6642 15.4142 18 15 18C14.5858 18 14.25 17.6642 14.25 17.25V9.00002C14.25 8.58581 14.5858 8.25002 15 8.25002Z" fill="black"/>
</svg>
