<svg width="24" height="24" viewBox="0 0 24 24" fill="none" xmlns="http://www.w3.org/2000/svg">
<path fill-rule="evenodd" clip-rule="evenodd" d="M19.9516 1.65124C20.1395 1.79297 20.25 2.01466 20.25 2.25001V5.98341C20.2503 5.99475 20.2503 6.00607 20.25 6.01734V16.3028C20.25 17.6423 19.3621 18.8194 18.0742 19.1874L16.7542 19.5645C15.1234 20.0305 13.5 18.806 13.5 17.1099C13.5 15.9701 14.2556 14.9684 15.3515 14.6553L17.6621 13.9951C18.306 13.8111 18.75 13.2225 18.75 12.5528V6.9943L9.75 9.56573V19.3028C9.75 20.6423 8.86207 21.8194 7.57416 22.1874L6.25418 22.5645C4.62337 23.0305 3 21.806 3 20.1099C3 18.9701 3.75559 17.9684 4.85153 17.6553L7.16208 16.9951C7.80603 16.8111 8.25 16.2225 8.25 15.5528V9.01658C8.24974 9.00525 8.24974 8.99395 8.25 8.98269V5.25001C8.25 4.91515 8.47198 4.62086 8.79396 4.52886L19.294 1.52886C19.5202 1.46421 19.7638 1.50952 19.9516 1.65124ZM9.75 8.00571L18.75 5.43428V3.2443L9.75 5.81573V8.00571ZM8.25 18.1512C8.04075 18.272 7.81442 18.3688 7.57416 18.4374L5.26362 19.0976C4.81162 19.2267 4.5 19.6398 4.5 20.1099C4.5 20.8094 5.16952 21.3144 5.8421 21.1223L7.16208 20.7451C7.80603 20.5611 8.25 19.9725 8.25 19.3028V18.1512ZM18.75 15.1512C18.5408 15.272 18.3144 15.3688 18.0742 15.4374L15.7636 16.0976C15.3116 16.2267 15 16.6398 15 17.1099C15 17.8094 15.6695 18.3144 16.3421 18.1223L17.6621 17.7451C18.306 17.5611 18.75 16.9725 18.75 16.3028V15.1512Z" fill="black"/>
</svg>
