<svg width="24" height="24" viewBox="0 0 24 24" fill="none" xmlns="http://www.w3.org/2000/svg">
<path fill-rule="evenodd" clip-rule="evenodd" d="M12 3.75C7.44365 3.75 3.75 7.44365 3.75 12C3.75 16.5563 7.44365 20.25 12 20.25C16.5563 20.25 20.25 16.5563 20.25 12C20.25 7.44365 16.5563 3.75 12 3.75ZM2.25 12C2.25 6.61522 6.61522 2.25 12 2.25C17.3848 2.25 21.75 6.61522 21.75 12C21.75 17.3848 17.3848 21.75 12 21.75C6.61522 21.75 2.25 17.3848 2.25 12ZM10.5 9.52464V14.4754L14.9557 12L10.5 9.52464ZM9 8.88732C9 8.02952 9.9215 7.48731 10.6713 7.90389L16.2742 11.0166C17.0457 11.4452 17.0457 12.5548 16.2742 12.9834L10.6713 16.0961C9.9215 16.5127 9 15.9705 9 15.1127V8.88732Z" fill="black"/>
</svg>
