<svg width="24" height="24" viewBox="0 0 24 24" fill="none" xmlns="http://www.w3.org/2000/svg">
<path fill-rule="evenodd" clip-rule="evenodd" d="M9.315 7.58365C12.1956 3.88296 16.6946 1.50021 21.75 1.5C21.9489 1.49999 22.1397 1.57901 22.2803 1.71966C22.421 1.86031 22.5 2.05108 22.5 2.25C22.5 7.30564 20.1173 11.805 16.4165 14.6859C16.4715 15.0329 16.5 15.3883 16.5 15.75C16.5 19.4779 13.4779 22.5 9.75 22.5C9.33579 22.5 9 22.1642 9 21.75V17.6185C8.99075 17.6118 8.98163 17.6049 8.97264 17.5978C8.02063 16.8429 7.15799 15.9803 6.40312 15.0282C6.39577 15.019 6.38866 15.0096 6.38179 15H2.25C1.83579 15 1.5 14.6642 1.5 14.25C1.5 10.5221 4.52208 7.5 8.25 7.5C8.61198 7.5 8.96772 7.52856 9.315 7.58365ZM8.33141 9.00062C8.30433 9.00021 8.27719 9 8.25 9C5.60515 9 3.41709 10.9558 3.05317 13.5H6.45002C6.84367 11.8885 7.48512 10.3745 8.33141 9.00062ZM7.79354 14.361C8.35145 15.0312 8.96969 15.6494 9.63988 16.2073C11.6657 15.7902 13.5349 14.9427 15.1479 13.764C18.503 11.3124 20.7445 7.43269 20.9795 3.0205C16.5676 3.2557 12.6882 5.49727 10.2368 8.85223C9.05806 10.4654 8.21064 12.3349 7.79354 14.361ZM10.5 17.551V20.9468C13.0442 20.5829 15 18.3949 15 15.75C15 15.7231 14.9998 15.6963 14.9994 15.6696C13.6255 16.5159 12.1115 17.1574 10.5 17.551ZM15 8.25C14.5858 8.25 14.25 8.58579 14.25 9C14.25 9.41421 14.5858 9.75 15 9.75C15.4142 9.75 15.75 9.41421 15.75 9C15.75 8.58579 15.4142 8.25 15 8.25ZM12.75 9C12.75 7.75736 13.7574 6.75 15 6.75C16.2426 6.75 17.25 7.75736 17.25 9C17.25 10.2426 16.2426 11.25 15 11.25C13.7574 11.25 12.75 10.2426 12.75 9ZM5.41306 16.1923C5.66074 16.5243 5.59237 16.9942 5.26036 17.2419C4.34218 17.9269 3.75 19.0192 3.75 20.25C4.98081 20.25 6.07313 19.6578 6.75809 18.7396C7.00576 18.4076 7.47569 18.3393 7.8077 18.5869C8.13971 18.8346 8.20808 19.3045 7.9604 19.6365C7.00452 20.9179 5.47434 21.75 3.75 21.75C3.47445 21.75 3.20336 21.7287 2.93842 21.6875C2.61574 21.6374 2.36259 21.3843 2.31246 21.0616C2.27129 20.7966 2.25 20.5256 2.25 20.25C2.25 18.5257 3.08209 16.9955 4.36345 16.0396C4.69546 15.7919 5.16539 15.8603 5.41306 16.1923Z" fill="black"/>
</svg>
