<svg width="24" height="24" viewBox="0 0 24 24" fill="none" xmlns="http://www.w3.org/2000/svg">
<path fill-rule="evenodd" clip-rule="evenodd" d="M10.9393 2.99996C11.8843 2.05501 13.5 2.72427 13.5 4.06063V19.9393C13.5 21.2757 11.8843 21.9449 10.9393 21L6.43934 16.5H4.50905C3.36772 16.5 2.19106 15.8355 1.8493 14.5949C1.62147 13.7678 1.5 12.8975 1.5 12C1.5 11.1024 1.62147 10.2321 1.8493 9.40502C2.19106 8.1644 3.36772 7.49997 4.50905 7.49997H6.43934L10.9393 2.99996L11.4697 3.53029L10.9393 2.99996ZM12 4.06062L7.28033 8.7803C7.13968 8.92095 6.94891 8.99997 6.75 8.99997H4.50905C3.8917 8.99997 3.42075 9.34847 3.29544 9.80339C3.10302 10.5019 3 11.2383 3 12C3 12.7616 3.10302 13.498 3.29544 14.1965C3.42075 14.6515 3.8917 15 4.50905 15H6.75C6.94891 15 7.13968 15.079 7.28033 15.2196L12 19.9393V4.06062ZM18.5837 5.10562C18.8766 4.81273 19.3514 4.81273 19.6443 5.10562C23.452 8.91323 23.452 15.0866 19.6443 18.8942C19.3514 19.1871 18.8766 19.1871 18.5837 18.8942C18.2908 18.6013 18.2908 18.1264 18.5837 17.8335C21.8055 14.6117 21.8055 9.38811 18.5837 6.16628C18.2908 5.87339 18.2908 5.39851 18.5837 5.10562ZM15.9323 7.75736C16.2252 7.46446 16.7001 7.46446 16.993 7.75736C19.3361 10.1005 19.3361 13.8995 16.993 16.2426C16.7001 16.5355 16.2252 16.5355 15.9323 16.2426C15.6394 15.9497 15.6394 15.4749 15.9323 15.182C17.6897 13.4246 17.6897 10.5754 15.9323 8.81802C15.6394 8.52512 15.6394 8.05025 15.9323 7.75736Z" fill="black"/>
</svg>
