<svg width="24" height="24" viewBox="0 0 24 24" fill="none" xmlns="http://www.w3.org/2000/svg">
<path fill-rule="evenodd" clip-rule="evenodd" d="M10.9393 2.99996C11.8843 2.05501 13.5 2.72427 13.5 4.06063V19.9393C13.5 21.2757 11.8843 21.9449 10.9393 21L6.43934 16.5H4.50905C3.36772 16.5 2.19106 15.8355 1.8493 14.5949C1.62147 13.7678 1.5 12.8975 1.5 12C1.5 11.1024 1.62147 10.2321 1.8493 9.40502C2.19106 8.1644 3.36772 7.49997 4.50905 7.49997H6.43934L10.9393 2.99996L11.4697 3.53029L10.9393 2.99996ZM12 4.06062L7.28033 8.7803C7.13968 8.92095 6.94891 8.99997 6.75 8.99997H4.50905C3.8917 8.99997 3.42075 9.34847 3.29544 9.80339C3.10302 10.5019 3 11.2383 3 12C3 12.7616 3.10302 13.498 3.29544 14.1965C3.42075 14.6515 3.8917 15 4.50905 15H6.75C6.94891 15 7.13968 15.079 7.28033 15.2196L12 19.9393V4.06062ZM16.7197 9.21964C17.0126 8.92674 17.4874 8.92674 17.7803 9.21964L19.5 10.9393L21.2197 9.21964C21.5126 8.92674 21.9874 8.92674 22.2803 9.21964C22.5732 9.51253 22.5732 9.9874 22.2803 10.2803L20.5607 12L22.2803 13.7196C22.5732 14.0125 22.5732 14.4874 22.2803 14.7803C21.9874 15.0732 21.5126 15.0732 21.2197 14.7803L19.5 13.0606L17.7803 14.7803C17.4874 15.0732 17.0126 15.0732 16.7197 14.7803C16.4268 14.4874 16.4268 14.0125 16.7197 13.7196L18.4393 12L16.7197 10.2803C16.4268 9.9874 16.4268 9.51253 16.7197 9.21964Z" fill="black"/>
</svg>
