<svg width="24" height="24" viewBox="0 0 24 24" fill="none" xmlns="http://www.w3.org/2000/svg">
<path fill-rule="evenodd" clip-rule="evenodd" d="M12 3.75C7.44365 3.75 3.75 7.44365 3.75 12C3.75 16.5563 7.44365 20.25 12 20.25C16.5563 20.25 20.25 16.5563 20.25 12C20.25 7.44365 16.5563 3.75 12 3.75ZM2.25 12C2.25 6.61522 6.61522 2.25 12 2.25C17.3848 2.25 21.75 6.61522 21.75 12C21.75 17.3848 17.3848 21.75 12 21.75C6.61522 21.75 2.25 17.3848 2.25 12ZM8.25 9.5625C8.25 8.83763 8.83763 8.25 9.5625 8.25H14.4375C15.1624 8.25 15.75 8.83763 15.75 9.5625V14.4375C15.75 15.1624 15.1624 15.75 14.4375 15.75H9.5625C8.83763 15.75 8.25 15.1624 8.25 14.4375V9.5625ZM9.75 9.75V14.25H14.25V9.75H9.75Z" fill="black"/>
</svg>
