<svg width="24" height="24" viewBox="0 0 24 24" fill="none" xmlns="http://www.w3.org/2000/svg">
<path fill-rule="evenodd" clip-rule="evenodd" d="M11.9999 3C11.4522 3 10.9066 3.00876 10.3633 3.02614C9.60866 3.05028 8.99988 3.68393 8.99988 4.47819V4.59082C9.99224 4.53056 10.9925 4.5 11.9999 4.5C13.0072 4.5 14.0075 4.53056 14.9999 4.59082V4.47819C14.9999 3.68393 14.3911 3.05028 13.6365 3.02614C13.0931 3.00876 12.5475 3 11.9999 3ZM16.4999 4.70498V4.47819C16.4999 2.91371 15.2873 1.57818 13.6844 1.52691C13.1251 1.50901 12.5635 1.5 11.9999 1.5C11.4362 1.5 10.8747 1.50901 10.3153 1.52691C8.71241 1.57818 7.49988 2.91371 7.49988 4.47819V4.70498C6.54515 4.79237 5.59834 4.90731 4.66024 5.04898C4.3129 5.10143 3.96677 5.15755 3.62187 5.2173C3.21373 5.28799 2.94019 5.67617 3.01088 6.0843C3.08158 6.49244 3.46975 6.76598 3.87789 6.69529C3.94749 6.68323 4.01715 6.67132 4.08686 6.65957L5.09229 19.7301C5.21252 21.2931 6.51584 22.5 8.08345 22.5H15.9163C17.4839 22.5 18.7872 21.2931 18.9075 19.7301L19.9129 6.65957C19.9826 6.67132 20.0523 6.68323 20.1219 6.69529C20.53 6.76598 20.9182 6.49244 20.9889 6.0843C21.0596 5.67617 20.786 5.28799 20.3779 5.2173C20.033 5.15755 19.6869 5.10143 19.3395 5.04898C18.4014 4.90731 17.4546 4.79237 16.4999 4.70498ZM18.4259 6.43321C17.5225 6.3104 16.611 6.2131 15.6921 6.14209C14.4739 6.04796 13.2425 6 11.9999 6C10.7572 6 9.5259 6.04796 8.30766 6.14209C7.38873 6.2131 6.47722 6.3104 5.57388 6.43321L6.58787 19.615C6.64798 20.3965 7.29964 21 8.08345 21H15.9163C16.7001 21 17.3518 20.3965 17.4119 19.615L18.4259 6.43321ZM9.23067 8.25055C9.64458 8.23463 9.99302 8.55727 10.0089 8.97118L10.3551 17.9712C10.371 18.3851 10.0484 18.7335 9.63447 18.7494C9.22057 18.7654 8.87212 18.4427 8.8562 18.0288L8.51005 9.02882C8.49413 8.61492 8.81676 8.26647 9.23067 8.25055ZM14.7691 8.25055C15.183 8.26647 15.5056 8.61492 15.4897 9.02882L15.1436 18.0288C15.1276 18.4427 14.7792 18.7654 14.3653 18.7494C13.9514 18.7335 13.6287 18.3851 13.6447 17.9712L13.9908 8.97118C14.0067 8.55727 14.3552 8.23463 14.7691 8.25055Z" fill="black"/>
</svg>
