<svg width="24" height="24" viewBox="0 0 24 24" fill="none" xmlns="http://www.w3.org/2000/svg">
<path fill-rule="evenodd" clip-rule="evenodd" d="M8.625 3.75C7.17525 3.75 6 4.92525 6 6.375C6 7.82475 7.17525 9 8.625 9C10.0747 9 11.25 7.82475 11.25 6.375C11.25 4.92525 10.0747 3.75 8.625 3.75ZM4.5 6.375C4.5 4.09683 6.34683 2.25 8.625 2.25C10.9032 2.25 12.75 4.09683 12.75 6.375C12.75 8.65317 10.9032 10.5 8.625 10.5C6.34683 10.5 4.5 8.65317 4.5 6.375ZM17.625 6.75C16.5895 6.75 15.75 7.58947 15.75 8.625C15.75 9.66053 16.5895 10.5 17.625 10.5C18.6605 10.5 19.5 9.66053 19.5 8.625C19.5 7.58947 18.6605 6.75 17.625 6.75ZM14.25 8.625C14.25 6.76104 15.761 5.25 17.625 5.25C19.489 5.25 21 6.76104 21 8.625C21 10.489 19.489 12 17.625 12C15.761 12 14.25 10.489 14.25 8.625ZM3.00889 18.806C4.67308 19.7261 6.58687 20.25 8.625 20.25C10.6631 20.25 12.5769 19.7261 14.2411 18.806C14.1929 17.9423 13.9502 17.1321 13.5565 16.4169C12.5985 14.6765 10.7486 13.5 8.625 13.5C5.62545 13.5 3.17427 15.8478 3.00889 18.806ZM15.2353 19.9662C13.2934 21.1003 11.034 21.75 8.625 21.75C6.15343 21.75 3.8393 21.0661 1.86406 19.8768C1.64256 19.7435 1.50537 19.5054 1.50103 19.2469C1.50034 19.2064 1.5 19.1657 1.5 19.125C1.5 15.19 4.68997 12 8.625 12C10.94 12 12.9963 13.1043 14.2971 14.8126C15.1678 13.999 16.338 13.5 17.625 13.5C20.3173 13.5 22.5 15.6826 22.5 18.375C22.5 18.4432 22.4985 18.5111 22.4958 18.5787C22.4844 18.8536 22.3235 19.1002 22.0765 19.2213C20.7322 19.8803 19.2207 20.25 17.625 20.25C16.8025 20.25 16.0022 20.1518 15.2353 19.9662ZM15.7263 18.5405C16.3366 18.6776 16.9719 18.75 17.625 18.75C18.8187 18.75 19.9542 18.5079 20.9864 18.0706C20.8326 16.3493 19.3863 15 17.625 15C16.6189 15 15.7153 15.4397 15.0961 16.1397C15.4384 16.8805 15.6572 17.6898 15.7263 18.5405Z" fill="black"/>
</svg>
