<svg width="24" height="24" viewBox="0 0 24 24" fill="none" xmlns="http://www.w3.org/2000/svg">
<path fill-rule="evenodd" clip-rule="evenodd" d="M9.375 3.75C7.92525 3.75 6.75 4.92525 6.75 6.375C6.75 7.82475 7.92525 9 9.375 9C10.8247 9 12 7.82475 12 6.375C12 4.92525 10.8247 3.75 9.375 3.75ZM5.25 6.375C5.25 4.09683 7.09683 2.25 9.375 2.25C11.6532 2.25 13.5 4.09683 13.5 6.375C13.5 8.65317 11.6532 10.5 9.375 10.5C7.09683 10.5 5.25 8.65317 5.25 6.375ZM18 6.75C18.4142 6.75 18.75 7.08579 18.75 7.5V9.75H21C21.4142 9.75 21.75 10.0858 21.75 10.5C21.75 10.9142 21.4142 11.25 21 11.25H18.75V13.5C18.75 13.9142 18.4142 14.25 18 14.25C17.5858 14.25 17.25 13.9142 17.25 13.5V11.25H15C14.5858 11.25 14.25 10.9142 14.25 10.5C14.25 10.0858 14.5858 9.75 15 9.75H17.25V7.5C17.25 7.08579 17.5858 6.75 18 6.75ZM3.75889 18.806C5.42308 19.7261 7.33687 20.25 9.375 20.25C11.4131 20.25 13.3269 19.7261 14.9911 18.806C14.8257 15.8478 12.3745 13.5 9.375 13.5C6.37545 13.5 3.92427 15.8478 3.75889 18.806ZM2.25 19.125C2.25 15.19 5.43997 12 9.375 12C13.31 12 16.5 15.19 16.5 19.125V19.1276C16.5 19.1674 16.4996 19.2074 16.499 19.2469C16.4946 19.5054 16.3574 19.7435 16.1359 19.8768C14.1607 21.0661 11.8466 21.75 9.375 21.75C6.90343 21.75 4.5893 21.0661 2.61406 19.8768C2.39256 19.7435 2.25537 19.5054 2.25103 19.2469C2.25034 19.2064 2.25 19.1657 2.25 19.125Z" fill="black"/>
</svg>
