<svg width="24" height="24" viewBox="0 0 24 24" fill="none" xmlns="http://www.w3.org/2000/svg">
<path fill-rule="evenodd" clip-rule="evenodd" d="M12.0001 3C10.3432 3 9.00009 4.34315 9.00009 6C9.00009 7.65685 10.3432 9 12.0001 9C13.6569 9 15.0001 7.65685 15.0001 6C15.0001 4.34315 13.6569 3 12.0001 3ZM7.50009 6C7.50009 3.51472 9.51481 1.5 12.0001 1.5C14.4854 1.5 16.5001 3.51472 16.5001 6C16.5001 8.48528 14.4854 10.5 12.0001 10.5C9.51481 10.5 7.50009 8.48528 7.50009 6ZM5.27718 19.6409C7.34241 20.5158 9.61398 21 12.0004 21C14.3866 21 16.658 20.5159 18.723 19.6412C18.4154 16.1987 15.5228 13.5 12.0001 13.5C8.47746 13.5 5.58496 16.1985 5.27718 19.6409ZM3.75133 20.1053C3.82867 15.6156 7.49207 12 12.0001 12C16.5082 12 20.1717 15.6157 20.2488 20.1056C20.254 20.4034 20.0824 20.676 19.8117 20.8002C17.4328 21.8918 14.7866 22.5 12.0004 22.5C9.21395 22.5 6.56752 21.8917 4.18841 20.7999C3.91774 20.6757 3.7462 20.4031 3.75133 20.1053Z" fill="black"/>
</svg>
