<svg width="24" height="24" viewBox="0 0 24 24" fill="none" xmlns="http://www.w3.org/2000/svg">
<path fill-rule="evenodd" clip-rule="evenodd" d="M10.375 3.75C8.92525 3.75 7.75 4.92525 7.75 6.375C7.75 7.82475 8.92525 9 10.375 9C11.8247 9 13 7.82475 13 6.375C13 4.92525 11.8247 3.75 10.375 3.75ZM6.25 6.375C6.25 4.09683 8.09683 2.25 10.375 2.25C12.6532 2.25 14.5 4.09683 14.5 6.375C14.5 8.65317 12.6532 10.5 10.375 10.5C8.09683 10.5 6.25 8.65317 6.25 6.375ZM15.25 10.5C15.25 10.0858 15.5858 9.75 16 9.75H22C22.4142 9.75 22.75 10.0858 22.75 10.5C22.75 10.9142 22.4142 11.25 22 11.25H16C15.5858 11.25 15.25 10.9142 15.25 10.5ZM4.75889 18.806C6.42309 19.7261 8.33687 20.25 10.375 20.25C12.4131 20.25 14.3269 19.7261 15.9911 18.806C15.8257 15.8478 13.3745 13.5 10.375 13.5C7.37545 13.5 4.92427 15.8478 4.75889 18.806ZM3.25 19.125C3.25 15.19 6.43997 12 10.375 12C14.31 12 17.5 15.19 17.5 19.125V19.1276C17.5 19.1674 17.4996 19.2074 17.499 19.2469C17.4946 19.5054 17.3574 19.7435 17.1359 19.8768C15.1607 21.0661 12.8466 21.75 10.375 21.75C7.90343 21.75 5.5893 21.0661 3.61406 19.8768C3.39256 19.7435 3.25537 19.5054 3.25103 19.2469C3.25034 19.2064 3.25 19.1657 3.25 19.125Z" fill="black"/>
</svg>
