<svg width="24" height="24" viewBox="0 0 24 24" fill="none" xmlns="http://www.w3.org/2000/svg">
<path fill-rule="evenodd" clip-rule="evenodd" d="M0.96967 3.96967C1.26256 3.67678 1.73744 3.67678 2.03033 3.96967L2.97617 4.91551C3.42283 4.65177 3.94421 4.5 4.5 4.5H13.5C14.2956 4.5 15.0587 4.81607 15.6213 5.37868C16.1839 5.94129 16.5 6.70435 16.5 7.5V8.68934L19.9397 5.24967C20.1494 5.04016 20.4169 4.89718 20.7077 4.83941C20.9985 4.78164 21.2999 4.81134 21.5738 4.92477C21.8478 5.03819 22.0819 5.23025 22.2468 5.47668C22.4116 5.72311 22.4997 6.01286 22.5 6.30934V17.69C22.4997 17.9865 22.4116 18.2769 22.2468 18.5233C22.0819 18.7698 21.8478 18.9618 21.5738 19.0752C21.2999 19.1887 20.9985 19.2184 20.7077 19.1606C20.4169 19.1028 20.1498 18.9602 19.94 18.7507L16.5 15.3107V16.5C16.5 17.0558 16.3482 17.5772 16.0845 18.0238L17.0303 18.9697C17.3232 19.2626 17.3232 19.7374 17.0303 20.0303C16.7374 20.3232 16.2626 20.3232 15.9697 20.0303L0.96967 5.03033C0.676777 4.73744 0.676777 4.26256 0.96967 3.96967ZM14.9493 16.8886C14.9824 16.7647 15 16.6344 15 16.5V7.5C15 7.10218 14.842 6.72064 14.5607 6.43934C14.2794 6.15804 13.8978 6 13.5 6H4.5C4.36557 6 4.23532 6.01762 4.1114 6.05074L14.9493 16.8886ZM16.5 13.1893L21 17.6893L21 6.31066L16.5 10.8107V13.1893ZM2.25 8.25C2.66421 8.25 3 8.58579 3 9V16.5C3 16.8978 3.15804 17.2794 3.43934 17.5607C3.72064 17.842 4.10218 18 4.5 18H12C12.4142 18 12.75 18.3358 12.75 18.75C12.75 19.1642 12.4142 19.5 12 19.5H4.5C3.70435 19.5 2.94129 19.1839 2.37868 18.6213C1.81607 18.0587 1.5 17.2956 1.5 16.5V9C1.5 8.58579 1.83579 8.25 2.25 8.25Z" fill="black"/>
</svg>
