<svg width="24" height="24" viewBox="0 0 24 24" fill="none" xmlns="http://www.w3.org/2000/svg">
<path fill-rule="evenodd" clip-rule="evenodd" d="M1.5 7.5C1.5 5.84315 2.84315 4.5 4.5 4.5H13.5C15.1569 4.5 16.5 5.84315 16.5 7.5V8.68934L19.9393 5.25C20.8843 4.30505 22.5 4.97431 22.5 6.31066V17.6893C22.5 19.0257 20.8843 19.6949 19.9393 18.75L16.5 15.3107V16.5C16.5 18.1569 15.1569 19.5 13.5 19.5H4.5C2.84315 19.5 1.5 18.1569 1.5 16.5V7.5ZM16.5 13.1893L21 17.6893V6.31066L16.5 10.8107V13.1893ZM4.5 6C3.67157 6 3 6.67157 3 7.5V16.5C3 17.3284 3.67157 18 4.5 18H13.5C14.3284 18 15 17.3284 15 16.5V7.5C15 6.67157 14.3284 6 13.5 6H4.5Z" fill="black"/>
</svg>
