<svg width="24" height="24" viewBox="0 0 24 24" fill="none" xmlns="http://www.w3.org/2000/svg">
<path d="M0.96934 3.97007C1.10997 3.82962 1.30059 3.75073 1.49934 3.75073C1.69809 3.75073 1.88871 3.82962 2.02934 3.97007L17.0293 18.9701C17.103 19.0387 17.1621 19.1215 17.2031 19.2135C17.2441 19.3055 17.2662 19.4048 17.2679 19.5056C17.2697 19.6063 17.2512 19.7063 17.2135 19.7997C17.1757 19.8931 17.1196 19.9779 17.0484 20.0491C16.9772 20.1203 16.8923 20.1765 16.7989 20.2142C16.7055 20.2519 16.6055 20.2704 16.5048 20.2687C16.4041 20.2669 16.3048 20.2448 16.2128 20.2039C16.1208 20.1629 16.038 20.1038 15.9693 20.0301L0.96934 5.03007C0.82889 4.88945 0.75 4.69882 0.75 4.50007C0.75 4.30132 0.82889 4.1107 0.96934 3.97007ZM17.2493 16.0601L19.9393 18.7501C20.8833 19.6951 22.4993 19.0261 22.4993 17.6901V6.31007C22.4993 4.97407 20.8833 4.30507 19.9393 5.25007L17.2493 7.94007V16.0601ZM15.7493 7.50007V15.5681L4.68134 4.50007H12.7493C13.545 4.50007 14.3081 4.81614 14.8707 5.37875C15.4333 5.94136 15.7493 6.70442 15.7493 7.50007ZM1.49934 16.5001V7.68207L13.2723 19.4551C13.1023 19.4851 12.9273 19.5001 12.7493 19.5001H4.49934C3.70369 19.5001 2.94063 19.184 2.37802 18.6214C1.81541 18.0588 1.49934 17.2957 1.49934 16.5001Z" fill="black"/>
</svg>
